<svg xmlns="http://www.w3.org/2000/svg" xmlns:xlink="http://www.w3.org/1999/xlink" width="1500" height="1500" viewBox="0 0 1500 1500">
  <defs>
    <clipPath id="clip-undraw_shopping_re_hdd9">
      <rect width="1500" height="1500"/>
    </clipPath>
  </defs>
  <g id="undraw_shopping_re_hdd9" clip-path="url(#clip-undraw_shopping_re_hdd9)">
    <rect width="1500" height="1500" fill="#fff"/>
    <g id="undraw_shopping_re_hdd9-2" data-name="undraw_shopping_re_hdd9">
      <rect id="Rectangle_2159" data-name="Rectangle 2159" width="1500" height="1500" fill="#fff" opacity="0"/>
      <path id="Path_792" data-name="Path 792" d="M856.674,619.4h-139.9a8.384,8.384,0,0,1-8.375-8.374V454.374A8.384,8.384,0,0,1,716.772,446h139.9a8.384,8.384,0,0,1,8.374,8.374V611.026a8.384,8.384,0,0,1-8.375,8.374Z" transform="translate(124.029 -235.088)" fill="#c0dc50" opacity="0.447"/>
      <path id="Path_794" data-name="Path 794" d="M778.58,524H759.861a2.466,2.466,0,0,1-2.463-2.463V492.963a2.466,2.466,0,0,1,2.463-2.463H778.58a2.466,2.466,0,0,1,2.463,2.463v28.572A2.466,2.466,0,0,1,778.58,524Z" transform="translate(123.306 -235.744)" fill="#fff" opacity="0.447"/>
      <path id="Path_795" data-name="Path 795" d="M815.58,524H796.861a2.466,2.466,0,0,1-2.463-2.463V492.963a2.466,2.466,0,0,1,2.463-2.463H815.58a2.466,2.466,0,0,1,2.463,2.463v28.572A2.466,2.466,0,0,1,815.58,524Z" transform="translate(122.759 -235.744)" fill="#fff" opacity="0.447"/>
      <path id="Path_796" data-name="Path 796" d="M778.58,577H759.861a2.466,2.466,0,0,1-2.463-2.463V545.963a2.466,2.466,0,0,1,2.463-2.463H778.58a2.466,2.466,0,0,1,2.463,2.463v28.572A2.466,2.466,0,0,1,778.58,577Z" transform="translate(123.306 -236.527)" fill="#fff" opacity="0.447"/>
      <path id="Path_797" data-name="Path 797" d="M815.58,577H796.861a2.466,2.466,0,0,1-2.463-2.463V545.963a2.466,2.466,0,0,1,2.463-2.463H815.58a2.466,2.466,0,0,1,2.463,2.463v28.572A2.466,2.466,0,0,1,815.58,577Z" transform="translate(122.759 -236.527)" fill="#fff" opacity="0.447"/>
      <path id="Path_15245" data-name="Path 15245" d="M1032.48,876.367a3.309,3.309,0,0,0,2.4-5.728l-.23-.9.09-.216a8.882,8.882,0,0,1,16.38.06c2.67,6.449,6.08,12.909,6.92,19.727a26.115,26.115,0,0,1-.46,9.03,105.231,105.231,0,0,0,9.58-43.719,102.2,102.2,0,0,0-.63-11.334q-.525-4.627-1.45-9.19a106.468,106.468,0,0,0-21.12-45.13,28.347,28.347,0,0,1-11.79-12.228,21.611,21.611,0,0,1-1.97-5.907c.58.076,1.16.123,1.73.16l.55.028.07,0a3.285,3.285,0,0,0,3.42-3.124,3.334,3.334,0,0,0-.73-2.21l-.75-.914c-.37-.47-.76-.931-1.14-1.4q-.06-.066-.12-.141c-.43-.536-.86-1.063-1.3-1.6a9.505,9.505,0,0,1,3.11-3c4.34-2.54,10.32-.781,13.45,3.141a17.074,17.074,0,0,1,2.65,14.326,38.135,38.135,0,0,1-5.25,11.7c.23.3.48.592.71.893a107.084,107.084,0,0,1,11.19,17.721,44.625,44.625,0,0,1,2.66-20.693c2.55-6.142,7.32-11.314,11.53-16.624a9.144,9.144,0,0,1,16.29,4.491l.03.234c-.63.353-1.24.726-1.84,1.122a4.48,4.48,0,0,0,1.81,8.157l.09.015a44.324,44.324,0,0,1-1.17,6.668,45.958,45.958,0,0,1-22.88,28.783c-.37.188-.72.376-1.09.555a109.048,109.048,0,0,1,5.89,27.71,102.963,102.963,0,0,1-.08,16.752l.03-.2a27.408,27.408,0,0,1,9.37-15.83c7.2-5.916,17.38-8.1,25.15-12.851a5.156,5.156,0,0,1,7.89,5.006l-.04.208a30.523,30.523,0,0,0-3.37,1.627c-.63.352-1.24.726-1.84,1.121a4.481,4.481,0,0,0,1.81,8.158l.09.014c.07.009.12.019.19.028a44.748,44.748,0,0,1-8.21,12.858,46.008,46.008,0,0,1-33.35,14.626h-.01a109.1,109.1,0,0,1-7.35,21.446h-26.25c-.1-.291-.18-.592-.27-.884a29.888,29.888,0,0,0,7.27-.433c-1.95-2.389-3.9-4.8-5.85-7.186q-.06-.067-.12-.141c-.99-1.223-1.98-2.436-2.97-3.659h0a43.894,43.894,0,0,1,1.28-11.126Z" fill="#c0dc50"/>
      <path id="Path_15246" data-name="Path 15246" d="M953.061,635.613c0,14.446,7.229,29.146,21.68,29.146s34.389-10.462,29.909-32.882c-2.84-14.165-10.972-22.42-25.423-22.42a26.161,26.161,0,0,0-26.166,26.156Z" fill="#5a587c"/>
      <path id="Path_15247" data-name="Path 15247" d="M1013.68,842.007a8.051,8.051,0,0,1,1.72-12.211l-6.32-27.87,13.9,5.23,3.88,25.664a8.089,8.089,0,0,1-13.18,9.186Z" fill="#d6babe"/>
      <path id="Path_15248" data-name="Path 15248" d="M984.167,743.222l9.705.988s-2.538,14.371,1.431,17.608,2.369,3.222,2.346,5.621a12.292,12.292,0,0,0,4.721,8.843c3.17,2.43,9.78,45.7,9.78,45.7l14.4.138a45.1,45.1,0,0,1,.11-11.2c.85-5.59,5.17-19.671,3.59-22.086s-.75-6.854-.7-11.652-6.82.5-6.75-7.494-8.73-58.177-7.86-65.367-7.87-13.671-7.87-13.671l-8-.077-14.906,52.642Z" fill="#5a587c"/>
      <path id="Path_15249" data-name="Path 15249" d="M881.138,675.735A7.621,7.621,0,0,0,888.255,685l7.786,25.935,9.028-10.8-8.778-22.973a7.664,7.664,0,0,0-15.153-1.434Z" fill="#d6babe"/>
      <path id="Path_15250" data-name="Path 15250" d="M963.334,684.183s-18.821-7.055-29.026,31.577l-13.545,14.024-11.381-20.556,1.505-4.876-8.8-19.932-15.08,8.651,3.712,13.684-.627,6.765,3.6,4.207,5.9,21.746,3.69,7.1s4.654,9.1,12.777,10.595a21.062,21.062,0,0,0,6.567.186,25.418,25.418,0,0,0,13.783-6.879,337,337,0,0,0,28.445-28.587l-1.527-37.71Z" fill="#5a587c"/>
      <path id="Path_15251" data-name="Path 15251" d="M988.58,748.871l1.332,6.342,1.131,23.394-45.48-6.156-3.493-27.089,4.826-7.928Z" fill="#d6babe"/>
      <path id="Path_15252" data-name="Path 15252" d="M973.827,664.382A21.517,21.517,0,1,0,952.3,642.865,21.521,21.521,0,0,0,973.827,664.382Z" fill="#d6babe"/>
      <path id="Path_15253" data-name="Path 15253" d="M1009.89,693.18a28.4,28.4,0,0,0-19.769-16.589l-.081-.016-4.262-5.735-17.292,1.733-3.16,6.48-8.2,4.876h-.016l-.017.017-4.294,2.559-14.245,16.67-.016.016a18.363,18.363,0,0,0-7.925,12.28,21.66,21.66,0,0,0-.211,4.325c.47,8.861,6.013,16.751,6.774,17.8l1.864,10.481.373,2.154,3.354.486,47.257,6.756,1.313.194.389.049,1.361-3.515v-.033l13.173-34.457,5.92-15.374A27.823,27.823,0,0,0,1009.89,693.18Z" fill="#5a587c"/>
      <path id="Path_15254" data-name="Path 15254" d="M996.354,648.505c-.2-.031-.39-.072-.585-.1-3.358-.595-6.716-1.18-10.063-1.785l-.308-7.586-4.056,6.795c-9.251,3.069-17.907,1.335-26.049-2.494a73.433,73.433,0,0,1-7.8-4.3c-1.752-10.684,2.667-19.1,14.016-20.179.352-.033.6-.328.913-.482l.011-.01h0c.523-.246,1.057-.482,1.591-.7a23.717,23.717,0,0,1,24.89,4.824,28.307,28.307,0,0,1,7.444,26.019Z" fill="#5a587c"/>
      <path id="Path_15255" data-name="Path 15255" d="M1017.56,822.034a99.965,99.965,0,0,0-4.67-18.662v-.016a93.459,93.459,0,0,0-6.71-14.807c-.01,0-.01-.007-.02-.015h0a72.418,72.418,0,0,0-14.791-19.051l-.632-.664h-.162L944.939,767.7h-.47l-.518-.016s-.2.567-.568,1.636a.935.935,0,0,1-.064.194c-.13.421-.292.907-.487,1.442-.113.356-.243.729-.372,1.134-.146.437-.308.891-.47,1.377-1.264,3.775-3.112,9.25-5.381,16.038-.34,1.037-.7,2.106-1.069,3.224-8.654,26.033-22.575,68.574-34.729,108.9h43.107c4.181-12.085,8.622-29.321,8.622-29.321,1.734-2.058,1.637-7.647,1.637-7.647l13.548-14.223,9.756,51.191h40.939l.3-56.975v-.486a116.187,116.187,0,0,0-1.16-22.129Z" fill="#5a587c"/>
      <path id="Path_15256" data-name="Path 15256" d="M988.106,617.826v.018a13.048,13.048,0,0,0,.428,3.337c.046.191.1.391.164.582v.009a13.2,13.2,0,0,0,8.141,8.475c.282.109.573.2.865.282a11.717,11.717,0,0,0,1.873.382,11.951,11.951,0,0,0,1.723.118,12.926,12.926,0,0,0,1.34-.063,12.763,12.763,0,0,0,3.07-.7,3.6,3.6,0,0,0,.45-.163,1.834,1.834,0,0,0,.22-.091,13.19,13.19,0,0,0,7.08-17.271c-.08-.2-.17-.4-.26-.6l-.01-.009a13.008,13.008,0,0,0-2.6-3.637c-2.38-2.373-3.43-8.321-7.05-8.321a5.017,5.017,0,0,0-.52.018c-2.43.082-6.918,5.32-8.828,6.557a12.885,12.885,0,0,0-3.621,3.428,13.043,13.043,0,0,0-2.128,4.692,13.246,13.246,0,0,0-.337,2.956Z" fill="#5a587c"/>
      <path id="Path_15257" data-name="Path 15257" d="M1004.22,613.234c2.05,2.384,5.26,3.311,8.15,4.551a34.278,34.278,0,0,1,19.92,25.036c.8,4.461.69,9.08,1.96,13.429,1.25,4.35,4.36,8.617,8.83,9.372,3.02.515,6.04-.65,8.88-1.8q2.355-.942,4.69-1.891-2.445-6.132-4.88-12.264a62.332,62.332,0,0,0,9.05,10.59q8.4-3.385,16.82-6.771c-13.8.052-11.45-13.34-14.54-26.776-1.69-7.384-16.14-12.384-18.98-19.409a21.5,21.5,0,0,0-38.99-1.958c-2.84,1.129-2.92,5.538-.91,7.892Z" fill="#5a587c"/>
      <path id="Path_15258" data-name="Path 15258" d="M945.606,770.973a20.371,20.371,0,0,0-13.97,12.649,6.46,6.46,0,0,0,.059,5.551,2.83,2.83,0,0,0,3.48,1.319,6.975,6.975,0,0,0,3.029-3.224,40.786,40.786,0,0,0,2.388-5.476c1.083-2.838,3.393-7.576.1-9.795-2.774-1.866-6.446-1.141-9.567-1.269-3.373-.139-7.121-1.43-8.319-4.924-1.166-3.4,1.566-6.6,4.511-7.887a11.731,11.731,0,0,1,10.945,1.042,15.87,15.87,0,0,1,6.355,9.189,1.123,1.123,0,0,1-2.163.6,13.3,13.3,0,0,0-6.055-8.291,9.077,9.077,0,0,0-9.67.378,3.975,3.975,0,0,0-1.719,4.481,5.389,5.389,0,0,0,3.861,2.891c3.558.86,7.28-.253,10.827.883a6.562,6.562,0,0,1,4.844,7.438,26.954,26.954,0,0,1-1.782,5.864,50.771,50.771,0,0,1-2.423,5.66c-1.409,2.66-3.948,5.54-7.3,4.76-3.819-.889-4.726-5.346-3.908-8.624a22.368,22.368,0,0,1,15.884-15.373,1.122,1.122,0,0,1,.6,2.162Z" fill="#5a587c"/>
      <path id="Path_15259" data-name="Path 15259" d="M1114.21,903.244H848.433a11.356,11.356,0,0,1-11.345-11.34V530.647a11.355,11.355,0,0,1,11.345-11.34H1114.21a11.348,11.348,0,0,1,11.34,11.34V891.9A11.348,11.348,0,0,1,1114.21,903.244Zm-265.777-380.7a8.11,8.11,0,0,0-8.1,8.1V891.9a8.111,8.111,0,0,0,8.1,8.1H1114.21a8.107,8.107,0,0,0,8.1-8.1V530.647a8.106,8.106,0,0,0-8.1-8.1Z" fill="#5a587c"/>
      <path id="Path_15260" data-name="Path 15260" d="M1156.45,387.24H402.4a2.927,2.927,0,0,1,0-5.853H1156.45a2.927,2.927,0,0,1,0,5.853Z" fill="#5a587c"/>
      <path id="Path_15261" data-name="Path 15261" d="M1302.93,734.764h-85.89a21.059,21.059,0,1,1,0-42.119h85.89a21.059,21.059,0,1,1,0,42.119Z" fill="#c0dc50"/>
      <path id="Path_15262" data-name="Path 15262" d="M687.074,822.908a3.3,3.3,0,0,1-2.4-5.728l.226-.9-.09-.216a8.88,8.88,0,0,0-16.377.06c-2.678,6.449-6.088,12.909-6.928,19.727a26.241,26.241,0,0,0,.461,9.03,105.231,105.231,0,0,1-9.579-43.719,101.7,101.7,0,0,1,.63-11.334q.523-4.628,1.45-9.19a106.45,106.45,0,0,1,21.124-45.13,28.342,28.342,0,0,0,11.79-12.228,21.606,21.606,0,0,0,1.967-5.907c-.574.076-1.158.123-1.732.16l-.546.028-.067,0a3.275,3.275,0,0,1-2.69-5.335l.744-.914c.376-.47.762-.931,1.138-1.4a1.385,1.385,0,0,0,.123-.141c.433-.536.865-1.063,1.3-1.6a9.471,9.471,0,0,0-3.1-3c-4.338-2.54-10.322-.781-13.456,3.141a17.11,17.11,0,0,0-2.644,14.326,37.95,37.95,0,0,0,5.251,11.7c-.235.3-.48.592-.715.893a107.22,107.22,0,0,0-11.19,17.721,44.534,44.534,0,0,0-2.661-20.693c-2.547-6.142-7.32-11.314-11.524-16.624a9.148,9.148,0,0,0-16.293,4.491l-.026.234q.938.528,1.834,1.122a4.482,4.482,0,0,1-1.808,8.157l-.091.015a44.478,44.478,0,0,0,1.176,6.668,45.924,45.924,0,0,0,22.874,28.783c.367.188.725.376,1.092.555a109.354,109.354,0,0,0-5.891,27.71,103.767,103.767,0,0,0,.076,16.752l-.029-.2a27.409,27.409,0,0,0-9.362-15.83c-7.205-5.916-17.384-8.1-25.157-12.851a5.146,5.146,0,0,0-7.883,5.006l.031.207a30.142,30.142,0,0,1,3.378,1.628q.938.528,1.834,1.121a4.483,4.483,0,0,1-1.808,8.158l-.092.014-.188.028a44.651,44.651,0,0,0,8.215,12.858A45.988,45.988,0,0,0,652.8,824.893h.01a109.286,109.286,0,0,0,7.348,21.446h26.253c.094-.292.179-.593.263-.884a29.877,29.877,0,0,1-7.264-.433c1.948-2.389,3.9-4.8,5.843-7.186a1.622,1.622,0,0,0,.123-.141c.988-1.223,1.985-2.436,2.973-3.659v0a43.71,43.71,0,0,0-1.28-11.125Z" fill="#c0dc50"/>
      <path id="Path_15263" data-name="Path 15263" d="M637.226,784.783a9.486,9.486,0,0,1-.162-14.547L615.61,714.17l17.146,3.63,18.2,53.929a9.541,9.541,0,0,1-13.734,13.054Z" fill="#ffb8b8" opacity="0.38"/>
      <path id="Path_15264" data-name="Path 15264" d="M646.053,723.376,626.8,643.284l-8.281-23.3a.05.05,0,0,1-.016-.032,15.229,15.229,0,0,0-19.512-9.169,9.92,9.92,0,0,0-.956.388,17.117,17.117,0,0,0-1.929,1.037,15.276,15.276,0,0,0-6.855,10.028l-1.458,7.646-.616,3.257,22.737,79.444v.032l7.908,27.67,3.663,12.765v.016l4.246,14.856.1.307,10.193-.68h.017l1.539-.113,11.668-.778,1.686-.113-4.878-43.173Z" fill="#5a587c" opacity="0.38"/>
      <path id="Path_15265" data-name="Path 15265" d="M567.891,589.654l42.883,86.693L637.9,768.53c-57.154,11.141-128.869,34.974-134.031.793,3.18-95.3,13.2-125.7,33.888-167.008Z" fill="#5a587c" opacity="0.38"/>
      <path id="Path_15266" data-name="Path 15266" d="M625.228,846.543H590.013l-14.278-48.227-10.047,47.612c-.033.21-.049.405-.081.615H528.074c1.215-14.9,3.435-40.823,4.489-44.5,1.491-5.216,0-5.216-2.982-8.2-.665-.664-.891-3.321-.827-7.031.179-12.781,3.663-38.1,3.663-38.1l4.132-7.646,1.427-2.657,73.607-2.592.632-.016,1.361,5.929,1.669,7.306,2.934,12.814,2.706,10.222.146.519v3.029a7.473,7.473,0,0,0-.616,3.354C620.415,780.01,622.749,812.313,625.228,846.543Z" fill="#5a587c" opacity="0.38"/>
      <path id="Path_15267" data-name="Path 15267" d="M562.865,602.51l5.054-12.086,15.641.274,16.31,23.062,17.118,71.964s6.149,52.57,0,55.345-80.6,1.3-80.6,1.3c3.447-28.39,6.016-57.27,8.724-74.523C554.061,610.826,558.284,622.825,562.865,602.51Z" fill="#c0dc50" opacity="0.38"/>
      <path id="Path_15268" data-name="Path 15268" d="M583.561,590.7s33.692,19.47,35.01,29.632,5.73,134.552,5.73,134.552l-11.915-7.7-3.256-45.336c2.271-40.284-3.272-70.31-14.541-92.819L583.561,590.7Z" fill="#5a587c" opacity="0.38"/>
      <path id="Path_15269" data-name="Path 15269" d="M598.273,565.758a22.963,22.963,0,1,0-26.345,18.981A22.955,22.955,0,0,0,598.273,565.758Z" fill="#ffb8b8" opacity="0.38"/>
      <path id="Path_15270" data-name="Path 15270" d="M547.313,560.718a39.885,39.885,0,0,0,5.462,13.08,8.893,8.893,0,0,0,2.979,3.381,3.256,3.256,0,0,0,4.137-.517l.559-.455a11.856,11.856,0,0,1-2.9-2.512,4.032,4.032,0,0,1-.775-3.609,2.484,2.484,0,0,1,3.041-1.623c1.344.527,2.162,2.471,3.568,2.171,1.138-.248,1.376-1.747,1.376-2.926-.041-6.163,2.938-14.921,5.244-14.652a18.624,18.624,0,0,0,6.879-.92,18.027,18.027,0,0,1,6.889-.879c.165.021.331.052.507.083a15.248,15.248,0,0,1,1.531-3.34,17.813,17.813,0,0,0,.186,3.784,35.366,35.366,0,0,0,5.73,1.81c2.131.3,6.817,6.669,7.034,6.018a15.248,15.248,0,0,1,1.531-3.34,17.882,17.882,0,0,0,.186,3.784c.011.052.011.093.021.145,1.034-1.375,1.665-3.05,1.314-1.768,3.465-7.838,2.12-13.452-3.331-20.06a10.489,10.489,0,0,0-4.086-3.278,5.154,5.154,0,0,0-5.027.5,16.919,16.919,0,0,0-16.778-3.578c-5.678,1.975-10.054,3.133-10.923,9.089A12.641,12.641,0,0,0,549.558,547a19.078,19.078,0,0,0-2.245,13.721Z" fill="#5a587c" opacity="0.38"/>
      <path id="Path_15271" data-name="Path 15271" d="M482.967,779.119a9.487,9.487,0,0,1,6.882-12.818l8.279-59.455L511.392,718.3,501.3,774.312a9.542,9.542,0,0,1-18.331,4.807Z" fill="#ffb8b8" opacity="0.38"/>
      <path id="Path_15272" data-name="Path 15272" d="M556.045,620.411l-.632-5.767a15.264,15.264,0,0,0-8.816-12.183,14.9,14.9,0,0,0-5.9-1.377h-.016a15.258,15.258,0,0,0-14.277,9.007l-10.113,22.6-25.524,78.327-8.249,42.606,8.913,1.312,12.916,1.9.1.016,2.965.438L548.85,646.412l.016-.033,7.747-20.719-.568-5.249Z" fill="#5a587c" opacity="0.38"/>
      <path id="Path_15273" data-name="Path 15273" d="M710.682,848.164H444.9a11.355,11.355,0,0,1-11.344-11.34V475.566A11.355,11.355,0,0,1,444.9,464.227H710.682a11.354,11.354,0,0,1,11.344,11.339V836.824A11.355,11.355,0,0,1,710.682,848.164ZM444.9,467.467a8.11,8.11,0,0,0-8.1,8.1V836.824a8.111,8.111,0,0,0,8.1,8.1H710.682a8.111,8.111,0,0,0,8.1-8.1V475.566a8.11,8.11,0,0,0-8.1-8.1Z" fill="#5a587c"/>
      <path id="Path_15274" data-name="Path 15274" d="M281.959,734.764H196.068a21.059,21.059,0,1,1,0-42.119h85.891a21.059,21.059,0,1,1,0,42.119Z" fill="#5a587c"/>
      <path id="Path_15275" data-name="Path 15275" d="M324.094,817.385H238.2a21.06,21.06,0,1,1,0-42.119h85.891a21.06,21.06,0,1,1,0,42.119Z" fill="#5a587c"/>
      <path id="Path_15276" data-name="Path 15276" d="M369.526,801.934l-.047,3.24,165.98,2.4.047-3.24Z" fill="#5a587c"/>
      <path id="Path_15277" data-name="Path 15277" d="M542.446,813.367a8.1,8.1,0,1,1,3.538-.819,8.115,8.115,0,0,1-3.538.819Zm-.016-12.961a4.856,4.856,0,1,0,4.361,2.722,4.862,4.862,0,0,0-4.361-2.722Z" fill="#5a587c"/>
      <path id="Path_15278" data-name="Path 15278" d="M333.873,716.074l-.047,3.24,165.98,2.4.047-3.24Z" fill="#5a587c"/>
      <path id="Path_15279" data-name="Path 15279" d="M506.793,727.506a8.1,8.1,0,1,1,3.543-.82A8.115,8.115,0,0,1,506.793,727.506Zm-4.383-5.969a4.858,4.858,0,1,0-.227-3.713A4.862,4.862,0,0,0,502.41,721.537Z" fill="#5a587c"/>
      <path id="Path_15280" data-name="Path 15280" d="M346.783,653.766H260.891a21.06,21.06,0,1,1,0-42.12h85.892a21.06,21.06,0,1,1,0,42.12Z" fill="#5a587c"/>
      <path id="Path_15281" data-name="Path 15281" d="M398.7,635.076l-.047,3.24,165.98,2.4.047-3.24Z" fill="#5a587c"/>
      <path id="Path_15282" data-name="Path 15282" d="M571.617,646.508a8.1,8.1,0,1,1,3.543-.82A8.115,8.115,0,0,1,571.617,646.508Zm-4.383-5.969a4.858,4.858,0,1,0-.227-3.713A4.862,4.862,0,0,0,567.234,640.539Z" fill="#5a587c"/>
      <path id="Path_15283" data-name="Path 15283" d="M1009.46,705.033l-.05,3.24,165.98,2.4.05-3.24Z" fill="#5a587c"/>
      <path id="Path_15284" data-name="Path 15284" d="M1002.49,715.441a8.123,8.123,0,1,1,3.54-.823,8.114,8.114,0,0,1-3.54.823Zm-.01-12.967a4.864,4.864,0,1,0,4.86,4.864,4.776,4.776,0,0,0-.49-2.131h0a4.862,4.862,0,0,0-4.37-2.732Z" fill="#5a587c"/>
      <path id="Path_15285" data-name="Path 15285" d="M1302.93,901.624h-85.89a21.06,21.06,0,1,1,0-42.12h85.89a21.06,21.06,0,1,1,0,42.12Z" fill="#c0dc50"/>
      <path id="Path_15286" data-name="Path 15286" d="M1009.46,871.891l-.05,3.24,165.98,2.4.05-3.24Z" fill="#5a587c"/>
      <path id="Path_15287" data-name="Path 15287" d="M1002.49,882.3a8.112,8.112,0,1,1,3.53-.817A8.1,8.1,0,0,1,1002.49,882.3Zm-.01-12.966a4.864,4.864,0,1,0,4.86,4.865,4.773,4.773,0,0,0-.49-2.131A4.862,4.862,0,0,0,1002.48,869.333Z" fill="#5a587c"/>
      <path id="Path_15288" data-name="Path 15288" d="M789.156,901.427a9.528,9.528,0,0,0,1.467-13.4,9.4,9.4,0,0,0-1.049-1.11l15.436-44.926-11.381-7.323-17.943,53.493a9.519,9.519,0,0,0,13.47,13.264Z" fill="#d6babe"/>
      <path id="Path_15289" data-name="Path 15289" d="M802.329,777.471c-2.727,11.528-6.8,21.6-6.245,26.434s-5.35,9.457-3.476,13.269-3.887,4.231-2.33,10.381,2.577,7.482,1.258,8.5-8.345,24.535-8.345,24.535l4.116,1.508,12.01,4.38,28.221-46.4-.085-56.954-7.008-.224c-1.682.63-3.546,1.387-5.4,2.3C809.365,767.933,803.622,771.981,802.329,777.471Z" fill="#c0dc50"/>
      <path id="Path_15290" data-name="Path 15290" d="M906.25,1138.86h14.676l6.982-56.59H906.247Z" fill="#d6babe"/>
      <path id="Path_15291" data-name="Path 15291" d="M925.809,1140.18v-9.95l-3.858.24-15.705.93-3.635.22-2.779,33.31-.148,1.78H910.1l.335-1.77,1.513-8.06,3.908,8.06.856,1.77h27.627a6.237,6.237,0,0,0,6.2-6.21c1.166-5.44-21.808-17.21-24.736-20.32Z" fill="#5a587c"/>
      <path id="Path_15292" data-name="Path 15292" d="M734.316,1122.89l12.766,7.24,34.006-45.77-18.839-10.69Z" fill="#d6babe"/>
      <path id="Path_15293" data-name="Path 15293" d="M750.683,1133.68l4.9-8.64-3.448-1.7-14.13-6.93-3.275-1.62-16.09,23.55-3.784,5.53,4.28,2.43,4.776,2.72,6.476-7.64-.72,10.9,22.566,12.81h.012l1.452.82a6.212,6.212,0,0,0,8.46-2.35C765.855,1159.4,751.688,1137.85,750.683,1133.68Z" fill="#5a587c"/>
      <path id="Path_15294" data-name="Path 15294" d="M833.42,861.092c-19.666,13.026-39.134,138.182-34.025,136.139l-46.353,86.349,23.692,16.02L862.4,962.576l28.476,60.614,11.76,93.04,29.5-2.11c-7.665-104.81-26.8-215.36-42.662-258.122l-56.051,5.094Z" fill="#5a587c"/>
      <path id="Path_15295" data-name="Path 15295" d="M818.488,870.386l-.214.8c20.791,11.563,77.7-1.831,77.7-1.831L886.8,839.817l12.382-65.63a19.187,19.187,0,0,0-19.311-19.063q-.654,0-1.3.053l-14.941-11.064-21.269.734-14.227,15.709-8.5,3.036-6.6,2.353c-1.335,1.2-2.792,2.588-4.189,4.116L819.283,832.2l4.444,18.582Z" fill="#c0dc50"/>
      <path id="Path_15296" data-name="Path 15296" d="M853.012,741.649a27.279,27.279,0,1,0-27.29-27.279A27.284,27.284,0,0,0,853.012,741.649Z" fill="#d6babe"/>
      <path id="Path_15297" data-name="Path 15297" d="M817.129,704.867c.082.031.153.062.234.093a3.919,3.919,0,0,0,.479.174,13.212,13.212,0,0,0,3.229.742,12.862,12.862,0,0,0,1.416.075,13.409,13.409,0,0,0,1.814-.118,12.836,12.836,0,0,0,1.979-.4,9.306,9.306,0,0,0,.907-.293,13.9,13.9,0,0,0,8.6-8.912v-.011a6.153,6.153,0,0,0,.175-.61,13.8,13.8,0,0,0,.457-3.514v-.02a13.785,13.785,0,0,0-2.578-8.065c-1.016-1.439-2.189-1.68-1.531-3.325,2.1-5.249-6.489-9.54-11.559-7.232a5.052,5.052,0,0,0-.55-.022c-3.414-.008-4.68,5.031-6.716,7.869l.059.019a2.618,2.618,0,0,1-.033,4.954q-2.033.661-4.108,1.169C804.846,692.823,810.075,708.58,817.129,704.867Z" fill="#5a587c"/>
      <path id="Path_15298" data-name="Path 15298" d="M819.64,719.307a28.318,28.318,0,0,0,8.89,15.07c4.617,3.73,26.333,12.566,28.166,5-1.226,5.284-.487,7.3,1.485,9.193.337-.458.695-.9,1.063-1.322a17.2,17.2,0,0,1,4.8-3.849,55.23,55.23,0,0,1-.687,9.534,31.988,31.988,0,0,1,2.318,2.369c3.512-10.464,11.21-23,5.636-32.525-2.211-3.781-.367-4.3,1.592-4.733,3.42-.757,5.306-14.789,6.12-18.2,1.01-4.277,1.409-9.2-1.242-12.707s-9.356-3.661-10.712.523l-2.824-3.838c-3.648-8.027-13.334-6.421-22.091-5.384a27.217,27.217,0,0,0-20.431,15.067,37.2,37.2,0,0,0-2.083,25.8Z" fill="#5a587c"/>
      <path id="Path_15299" data-name="Path 15299" d="M833.445,682.642a24.71,24.71,0,0,1-14.14,23.29c-1.78.806-3.329-1.831-1.537-2.642a21.742,21.742,0,0,0,12.62-20.656c-.1-1.965,2.956-1.952,3.057.008Z" fill="#c0dc50"/>
      <path id="Path_15300" data-name="Path 15300" d="M956.7,697.734a9.53,9.53,0,0,0-6.112,13.166l-31.918,35.191,7.567,11.218,37.6-42.073a9.518,9.518,0,0,0-7.141-17.5Z" fill="#d6babe"/>
      <path id="Path_15301" data-name="Path 15301" d="M865.971,811.9s22.638,4.064,29.693-5.462,14.769-17.167,16.173-21.823,8.646-6.581,8.432-10.828,5.242-2.349,6.236-8.622.585-7.89,2.2-8.3,17.344-19.252,17.344-19.252l-12.489-11.772-44.244,31.5L865.971,811.9Z" fill="#c0dc50"/>
      <path id="Path_15302" data-name="Path 15302" d="M695.709,1154.83a59.294,59.294,0,0,1-43.163-27.26c-6.125-9.92-9.285-21.72-12.341-33.12-.89-3.32-1.81-6.75-2.784-10.06a18.924,18.924,0,0,1,6.251-20.26,18.619,18.619,0,0,1,20.743-2.14l.715.38,1.253,28.16c1.857-3.77,5.932-12.3,9.16-20.8l.271-.72.619.45a95.137,95.137,0,0,1,17.493,16.25,98.052,98.052,0,0,1,20.767,79.81l-.156.84-18.828-11.53Z" fill="#c0dc50"/>
      <path id="Path_15303" data-name="Path 15303" d="M580.858,1166.07a1.924,1.924,0,0,0,1.917,1.93H1053.23a1.93,1.93,0,1,0,0-3.86H582.787a1.93,1.93,0,0,0-1.929,1.92Z" fill="#5a587c"/>
      <path id="Path_15304" data-name="Path 15304" d="M440.106,360.01a14.008,14.008,0,1,0-13.7-14.005A13.856,13.856,0,0,0,440.106,360.01Z" fill="#5a587c"/>
      <path id="Path_15305" data-name="Path 15305" d="M487.449,360.01a14.008,14.008,0,1,0-13.7-14.005A13.857,13.857,0,0,0,487.449,360.01Z" fill="#5a587c"/>
      <path id="Path_15306" data-name="Path 15306" d="M534.793,360.01a14.008,14.008,0,1,0-13.705-14.005A13.857,13.857,0,0,0,534.793,360.01Z" fill="#5a587c"/>
      <path id="Path_15307" data-name="Path 15307" d="M588.777,357.075a1.612,1.612,0,0,1-1.158-.488l-9.248-9.449a1.619,1.619,0,0,1,0-2.265l9.248-9.449a1.62,1.62,0,0,1,2.317,2.265l-8.139,8.316,8.139,8.317a1.621,1.621,0,0,1-1.159,2.753Z" fill="#5a587c"/>
      <path id="Path_15308" data-name="Path 15308" d="M604.316,357.074a1.62,1.62,0,0,1-1.158-2.753l8.137-8.316-8.137-8.316a1.62,1.62,0,1,1,2.316-2.266l9.247,9.449a1.619,1.619,0,0,1,0,2.265l-9.247,9.45A1.615,1.615,0,0,1,604.316,357.074Z" fill="#5a587c"/>
      <path id="Path_15309" data-name="Path 15309" d="M1088.08,333.621h-17.2a3.549,3.549,0,0,0-3.55,3.548v17.2a3.549,3.549,0,0,0,3.55,3.548h17.2a3.558,3.558,0,0,0,3.56-3.548v-17.2A3.558,3.558,0,0,0,1088.08,333.621Z" fill="#5a587c"/>
      <path id="Path_15310" data-name="Path 15310" d="M1045.94,333.621h-17.19a3.549,3.549,0,0,0-3.55,3.548v17.2a3.549,3.549,0,0,0,3.55,3.548h17.19a3.566,3.566,0,0,0,3.57-3.548v-17.2A3.566,3.566,0,0,0,1045.94,333.621Z" fill="#5a587c"/>
      <path id="Path_15311" data-name="Path 15311" d="M1127.78,334.432h-17.19a3.548,3.548,0,0,0-3.55,3.547v17.2a3.548,3.548,0,0,0,3.55,3.547h17.19a3.565,3.565,0,0,0,3.57-3.547v-17.2A3.565,3.565,0,0,0,1127.78,334.432Z" fill="#5a587c"/>
      <path id="Path_15312" data-name="Path 15312" d="M868.615,340.977H731.173a4.325,4.325,0,1,0,0,8.65H868.615a4.325,4.325,0,1,0,0-8.65Z" fill="#5a587c"/>
    </g>
  </g>
</svg>
